<svg width="89" height="89" viewBox="0 0 89 89" fill="none" xmlns="http://www.w3.org/2000/svg">
<path d="M74.3957 69.3365C78.3899 64.5308 81.1679 58.8338 82.4947 52.7274C83.8215 46.621 83.658 40.2849 82.0182 34.255C80.3783 28.2251 77.3103 22.6789 73.0736 18.0856C68.8369 13.4922 63.5563 9.98678 57.6783 7.86588C51.8004 5.74498 45.498 5.07099 39.3045 5.90091C33.111 6.73084 27.2085 9.04026 22.0962 12.6338C16.984 16.2274 12.8125 20.9994 9.93461 26.5461C7.05669 32.0928 5.55704 38.2511 5.56251 44.5C5.56462 53.5841 8.76581 62.3772 14.6044 69.3365L14.5487 69.3838C14.7434 69.6175 14.9659 69.8177 15.1662 70.0485C15.4165 70.335 15.6863 70.6048 15.9449 70.8829C16.7237 71.7284 17.5247 72.5405 18.3646 73.3026C18.6205 73.5362 18.8847 73.7532 19.1434 73.9757C20.0334 74.7433 20.9484 75.472 21.8968 76.1506C22.0192 76.234 22.1304 76.3425 22.2528 76.4287V76.3954C28.7668 80.9793 36.5376 83.4395 44.5028 83.4395C52.468 83.4395 60.2388 80.9793 66.7528 76.3954V76.4287C66.8752 76.3425 66.9836 76.234 67.1088 76.1506C68.0544 75.4692 68.9722 74.7433 69.8622 73.9757C70.1209 73.7532 70.3851 73.5335 70.641 73.3026C71.4809 72.5378 72.2819 71.7284 73.0607 70.8829C73.3193 70.6048 73.5863 70.335 73.8394 70.0485C74.0369 69.8177 74.2622 69.6174 74.4569 69.381L74.3957 69.3365ZM44.5 22.25C46.9754 22.25 49.3951 22.984 51.4533 24.3593C53.5115 25.7345 55.1157 27.6892 56.0629 29.9761C57.0102 32.263 57.2581 34.7795 56.7752 37.2073C56.2922 39.6351 55.1002 41.8652 53.3499 43.6155C51.5996 45.3658 49.3695 46.5578 46.9417 47.0408C44.5139 47.5237 41.9974 47.2758 39.7105 46.3285C37.4236 45.3813 35.4689 43.7771 34.0937 41.7189C32.7184 39.6607 31.9844 37.241 31.9844 34.7656C31.9844 31.4463 33.303 28.2629 35.6501 25.9157C37.9973 23.5686 41.1807 22.25 44.5 22.25V22.25ZM22.2695 69.3365C22.3177 65.6847 23.8018 62.1986 26.4006 59.6326C28.9995 57.0666 32.5041 55.6269 36.1563 55.625H52.8438C56.4959 55.6269 60.0006 57.0666 62.5994 59.6326C65.1982 62.1986 66.6823 65.6847 66.7305 69.3365C60.6308 74.8332 52.711 77.8752 44.5 77.8752C36.289 77.8752 28.3692 74.8332 22.2695 69.3365V69.3365Z" fill="white"/>
</svg>
